<?xml version="1.0" encoding="iso-8859-1"?>
<!-- Generator: Adobe Illustrator 16.0.0, SVG Export Plug-In . SVG Version: 6.00 Build 0)  -->
<!DOCTYPE svg PUBLIC "-//W3C//DTD SVG 1.1//EN" "http://www.w3.org/Graphics/SVG/1.1/DTD/svg11.dtd">
<svg version="1.1" id="Capa_1" xmlns="http://www.w3.org/2000/svg" xmlns:xlink="http://www.w3.org/1999/xlink" x="0px" y="0px"
	 width="70px" height="42px" viewBox="0 0 50.292 50.292" style="enable-background:new 0 0 50.292 50.292;"
	 xml:space="preserve">
<g>
	<g id="Layer_1_copy_46_">
		<path fill="#ababab" d="M41.258,32.354c0.227,0.231,0.34,0.605,0.34,1.121V36.1h-0.609v-2.619c0-0.32-0.067-0.562-0.204-0.722
			c-0.138-0.159-0.351-0.239-0.642-0.239c-0.377,0-0.658,0.107-0.84,0.325c-0.182,0.22-0.271,0.554-0.271,1.007v2.245h-0.608v-2.616
			c0-0.322-0.069-0.562-0.205-0.723c-0.137-0.161-0.353-0.24-0.643-0.24c-0.382,0-0.662,0.115-0.839,0.344
			c-0.178,0.229-0.268,0.604-0.268,1.125v2.11h-0.609v-4.022h0.496l0.101,0.551h0.028c0.115-0.195,0.275-0.348,0.486-0.458
			s0.443-0.166,0.703-0.166c0.629,0,1.041,0.228,1.232,0.683h0.029c0.121-0.211,0.293-0.377,0.521-0.498
			c0.229-0.123,0.486-0.185,0.777-0.185C40.691,32.001,41.031,32.119,41.258,32.354z M16.019,17.541l-0.005,0.023h0.005V17.541z
			 M19.43,32.547c0.29,0.365,0.435,0.876,0.435,1.534c0,0.66-0.147,1.174-0.442,1.54c-0.295,0.365-0.705,0.549-1.228,0.549
			c-0.262,0-0.501-0.048-0.718-0.146c-0.217-0.097-0.398-0.246-0.545-0.444h-0.044c0.03,0.233,0.044,0.458,0.044,0.668v1.653h-0.61
			v-5.828h0.496l0.084,0.552h0.03c0.156-0.22,0.339-0.379,0.546-0.478C17.686,32.048,17.925,32,18.194,32
			C18.729,32.001,19.14,32.184,19.43,32.547z M19.234,34.076c0-0.503-0.099-0.888-0.296-1.154s-0.474-0.401-0.832-0.401
			c-0.411,0-0.708,0.112-0.892,0.342c-0.184,0.228-0.278,0.588-0.282,1.086v0.136c0,0.565,0.094,0.97,0.282,1.213
			c0.188,0.244,0.49,0.365,0.907,0.365c0.348,0,0.62-0.142,0.816-0.423C19.136,34.958,19.234,34.569,19.234,34.076z M50.206,23.488
			c0.422,0.375-0.843,1.522-0.843,1.522c-1.356,1.568-1.764,1.969-1.764,1.969c-0.381,0.428-0.578,0.526-0.93,0.654
			c-0.354,0.127-1.055,0.21-1.055,0.21c-19.693,1.92-28.497-1.007-28.497-1.007c-2.169-0.725-4.424-1.842-5.022-2.146
			c-0.376,0.373-0.622,0.576-0.622,0.576c-2.951,2.458-6.135,2.623-6.135,2.623l-0.375-0.022c-0.139,0.002-0.274-0.003-0.405-0.011
			c0.15,0.011,0.241,0.011,0.241,0.011l0.351,0.022H4.94c-2.154,0-3.489-0.959-3.489-0.959C0,25.899,0,24.073,0,24.073
			c0.048-1.569,1.547-2.622,1.547-2.622c1.428-1.007,3.161-0.913,3.161-0.913c2.107,0.07,5.526,1.569,5.526,1.569
			c0.313,0.123,0.638,0.246,0.967,0.367c0.775-1.038,1.235-1.936,1.235-1.936c0.585-1.147,0.819-2.061,0.819-2.061H5.224v-0.913
			h3.793v-2.06H3.748V14.59h5.269v-1.662c0-0.281,0.632-0.422,0.632-0.422l0.609-0.046h1.428v2.13h5.457v0.914h-5.457v2.06h4.328
			l-0.135,0.702c-0.211,0.937-0.609,1.874-0.609,1.874c-0.503,1.202-1.206,2.258-1.87,3.096c1.886,0.622,3.462,1.072,3.462,1.072
			c0.745,0.214,1.595,0.39,2.506,0.537v-7.725c0,0-1.007,0.515-1.874,0.843L17.143,17.4c0,0,0.913-0.632,1.826-1.521
			c0,0,1.803-1.804,1.803-3.021c0,0,0-0.281,0.632-0.421l0.609-0.047h1.217l-0.046,0.445l-0.305,1.101c0,0-0.328,0.749-0.82,1.334
			v9.907c1.842,0.172,3.759,0.257,5.479,0.291v-9.027H22.48v-0.936h5.058v-2.646c0-0.281,0.633-0.421,0.633-0.421l0.608-0.047h1.451
			v3.115h1.404v0.936H30.23v9.049c1.865-0.009,3.113-0.058,3.113-0.058c1.664-0.067,3.23-0.166,4.684-0.281v-4.613h-3.629v-0.937
			h3.629v-2.341H32.76v-3.419c0-0.375,1.264-0.468,1.264-0.468h1.265v0.515l2.739-0.093V12.86c0-0.281,0.634-0.421,0.634-0.421
			l0.608-0.047h1.451v1.311l4.215-0.141c1.193,0,1.219,1.125,1.219,1.125l-0.211,1.545c-0.209,0.562-0.562,0.562-0.562,0.562h-0.116
			v0.468h-4.543v2.341h3.864v0.937h-3.864v4.367c5.534-0.571,8.875-1.323,8.875-1.323L50.206,23.488z M4.092,27.807
			c-1.159-0.182-1.913-0.689-1.913-0.689c-0.055-0.036-0.108-0.074-0.159-0.112c0.069,0.06,0.112,0.089,0.112,0.089
			C2.759,27.535,3.538,27.725,4.092,27.807z M10.161,23.705l-2.08-1.059c-0.573-0.224-0.439-0.172-1.616-0.632
			c-1.042-0.408-2.084-0.234-2.084-0.234c-0.053,0-0.105,0.003-0.157,0.005c-2.489,0.617-2.489,2.312-2.489,2.312
			c0,1.405,1.1,2.083,1.1,2.083c0.89,0.516,2.271,0.516,2.271,0.516c1.874,0,4.777-2.715,4.777-2.715
			C9.978,23.889,10.07,23.797,10.161,23.705z M43.65,16.346l0.187-1.428c-0.022-0.398-0.397-0.375-0.397-0.375l-2.715,0.094
			l-2.693,0.117v-0.023l-2.74,0.07v1.545H43.65z M22.982,32.329c0.23,0.213,0.347,0.554,0.347,1.023v2.746h-0.452l-0.12-0.574h-0.03
			c-0.201,0.252-0.401,0.422-0.6,0.513c-0.2,0.09-0.449,0.135-0.748,0.135c-0.399,0-0.71-0.104-0.938-0.31
			c-0.226-0.207-0.339-0.5-0.339-0.877c0-0.812,0.65-1.238,1.949-1.276l0.683-0.022v-0.248c0-0.316-0.068-0.55-0.205-0.699
			c-0.135-0.151-0.353-0.228-0.651-0.228c-0.335,0-0.714,0.104-1.138,0.31l-0.188-0.467c0.199-0.107,0.416-0.191,0.651-0.252
			c0.236-0.062,0.473-0.094,0.711-0.094C22.395,32.008,22.751,32.114,22.982,32.329z M22.719,34.12l-0.608,0.025
			c-0.484,0.018-0.834,0.092-1.048,0.227c-0.214,0.134-0.321,0.34-0.321,0.621c0,0.221,0.067,0.39,0.2,0.504
			c0.133,0.113,0.32,0.172,0.56,0.172c0.379,0,0.677-0.105,0.894-0.312s0.325-0.5,0.325-0.873v-0.361h-0.002V34.12z M34.822,32.565
			c0.33,0.375,0.496,0.881,0.496,1.519c0,0.655-0.166,1.168-0.496,1.537c-0.329,0.368-0.786,0.553-1.368,0.553
			c-0.358,0-0.679-0.085-0.957-0.254c-0.279-0.169-0.494-0.411-0.646-0.728c-0.15-0.314-0.228-0.687-0.228-1.108
			c0-0.656,0.164-1.166,0.491-1.532c0.326-0.365,0.783-0.549,1.365-0.549C34.043,32.001,34.49,32.19,34.822,32.565z M34.688,34.083
			c0-0.512-0.104-0.898-0.311-1.165s-0.514-0.397-0.916-0.397c-0.398,0-0.701,0.131-0.902,0.394
			c-0.203,0.262-0.305,0.651-0.305,1.17c0,0.515,0.104,0.905,0.309,1.175c0.207,0.27,0.508,0.402,0.906,0.402s0.701-0.133,0.908-0.4
			C34.585,34.989,34.688,34.6,34.688,34.083z M27.667,35.209c-0.142,0-0.248,0.042-0.321,0.126
			c-0.074,0.084-0.113,0.208-0.113,0.373c0,0.176,0.041,0.303,0.123,0.38c0.084,0.077,0.188,0.116,0.312,0.116
			c0.141,0,0.25-0.042,0.33-0.129s0.123-0.207,0.123-0.367c0-0.164-0.041-0.288-0.121-0.373
			C27.918,35.252,27.807,35.209,27.667,35.209z M30.428,32.542c0.123,0,0.264,0.018,0.422,0.053s0.307,0.08,0.439,0.135l0.188-0.519
			c-0.108-0.058-0.262-0.104-0.455-0.146c-0.192-0.043-0.387-0.063-0.58-0.063c-0.6,0-1.062,0.185-1.387,0.55
			c-0.324,0.368-0.486,0.889-0.486,1.561c0,0.656,0.16,1.164,0.479,1.522c0.32,0.356,0.771,0.538,1.354,0.538
			c0.408,0,0.748-0.07,1.016-0.209v-0.54c-0.354,0.146-0.695,0.218-1.031,0.218c-0.391,0-0.687-0.133-0.885-0.396
			c-0.201-0.265-0.299-0.646-0.299-1.14C29.202,33.063,29.611,32.542,30.428,32.542z M24.776,21.498c0,0,0.282,0.282,0.562,0
			l0.984-0.89l0.865-1.007c0,0,0.306-0.257,0-0.585l-0.865-0.983l-0.984-0.866c0,0-0.28-0.281-0.562,0l-0.983,0.866l-0.89,0.983
			c0,0-0.257,0.328,0,0.585l0.866,1.007L24.776,21.498z M44.704,21.498l-0.75-0.655c0,0-0.209-0.211-0.443,0l-0.75,0.655
			l-0.655,0.75c0,0-0.188,0.234,0,0.444l0.655,0.75l0.75,0.656c0,0,0.234,0.234,0.443,0l0.75-0.656l0.68-0.75
			c0,0,0.164-0.21,0-0.444L44.704,21.498z M11.342,30.709l2.111,5.388h-0.646l-0.668-1.706H9.987l-0.66,1.706H8.696l2.122-5.388
			H11.342z M11.944,33.83l-0.623-1.663c-0.082-0.211-0.164-0.469-0.25-0.773c-0.053,0.233-0.13,0.492-0.231,0.773l-0.631,1.663
			H11.944z M14.948,36.097h0.61v-4.022h-0.61V36.097z M25.543,34.862c-0.101,0.303-0.168,0.517-0.2,0.641h-0.029
			c-0.046-0.23-0.167-0.609-0.36-1.134l-0.88-2.296h-0.655l1.623,4.047l-0.224,0.57c-0.179,0.472-0.478,0.705-0.896,0.705
			c-0.167,0-0.317-0.014-0.451-0.043v0.487c0.18,0.042,0.364,0.063,0.55,0.063c0.333,0,0.613-0.094,0.842-0.285
			c0.229-0.189,0.429-0.51,0.6-0.963l1.729-4.582H26.54C25.976,33.63,25.644,34.561,25.543,34.862z M47.374,13.607h0.142v-1.054
			h0.397v-0.164h-0.938v0.164h0.398L47.374,13.607L47.374,13.607z M13.573,36.097h0.608v-5.711h-0.608V36.097z M48.238,12.601
			l0.353,1.007h0.142l0.328-0.984v0.984h0.164v-1.218h-0.209l-0.353,1.031l-0.353-1.031h-0.233v1.218h0.164v-1.007H48.238z
			 M15.255,30.581c-0.102,0-0.188,0.031-0.257,0.097c-0.068,0.064-0.103,0.167-0.103,0.308c0,0.138,0.035,0.24,0.103,0.307
			c0.069,0.066,0.155,0.102,0.257,0.102c0.099,0,0.183-0.035,0.254-0.102c0.07-0.066,0.106-0.169,0.106-0.307
			s-0.036-0.238-0.106-0.306C15.438,30.612,15.354,30.581,15.255,30.581z"/>
	</g>
</g>
<g>
</g>
<g>
</g>
<g>
</g>
<g>
</g>
<g>
</g>
<g>
</g>
<g>
</g>
<g>
</g>
<g>
</g>
<g>
</g>
<g>
</g>
<g>
</g>
<g>
</g>
<g>
</g>
<g>
</g>
</svg>
