<?xml version="1.0" encoding="utf-8"?>
<!-- Generator: Adobe Illustrator 16.0.0, SVG Export Plug-In . SVG Version: 6.00 Build 0)  -->
<!DOCTYPE svg PUBLIC "-//W3C//DTD SVG 1.1//EN" "http://www.w3.org/Graphics/SVG/1.1/DTD/svg11.dtd">
<svg version="1.1" id="Layer_1" xmlns="http://www.w3.org/2000/svg" xmlns:xlink="http://www.w3.org/1999/xlink" x="0px" y="0px"
	 width="220px" height="43.993px" viewBox="0 0 220 43.993" enable-background="new 0 0 220 43.993" xml:space="preserve">
<g>
	<path fill="#C60E41" d="M22.146,43.655c11.873,0,21.497-9.623,21.497-21.495c0-11.867-9.625-21.491-21.497-21.491
		c-11.865,0-21.49,9.625-21.49,21.491C0.656,34.032,10.281,43.655,22.146,43.655"/>
	<polygon fill="#FFFFFF" points="21.292,12.73 21.292,31.571 27.29,31.571 27.29,29.887 23.01,29.887 23.01,12.73 	"/>
	<path fill="#FFFFFF" d="M15.285,17.873c1.423,0,2.577-1.155,2.577-2.578c0-1.421-1.154-2.574-2.577-2.574
		c-1.42,0-2.573,1.152-2.573,2.574C12.712,16.718,13.865,17.873,15.285,17.873"/>
	<path fill="#FFFFFF" d="M23.01,4.179c-0.226-0.014-0.65-0.017-0.864-0.017c-9.916,0-17.99,8.077-17.99,17.994
		c0,4.805,1.876,9.324,5.27,12.723c3.403,3.4,7.922,5.268,12.721,5.268c4.811,0,9.327-1.867,12.73-5.268
		c3.39-3.398,5.267-7.918,5.267-12.723v-0.82l-0.723,0.002H27.294v1.675h11.133v0.246c-0.574,8.48-7.651,15.207-16.281,15.207
		c-4.352,0-8.448-1.699-11.528-4.779c-3.083-3.078-4.779-7.176-4.779-11.531c0-4.355,1.697-8.451,4.779-11.535
		c3.081-3.081,7.177-4.778,11.528-4.778c0.196,0,0.658,0.004,0.864,0.016V4.179z"/>
	<polygon fill="#636466" points="59.408,7.885 52.938,7.885 52.938,35.885 72.807,35.885 72.807,30.432 59.408,30.432 	"/>
	<path fill="#636466" d="M87.038,25.213h5.268v4.898c-0.969,0.367-2.862,0.734-4.665,0.734c-5.824,0-7.763-2.953-7.763-8.961
		c0-5.729,1.846-9.101,7.667-9.101c3.237,0,5.085,1.014,6.61,2.954l4.021-3.695c-2.45-3.511-6.749-4.575-10.767-4.575
		c-9.058,0-13.819,4.942-13.819,14.37c0,9.381,4.298,14.463,13.774,14.463c4.339,0,8.595-1.111,10.903-2.727V19.991h-11.23V25.213z"
		/>
	<rect x="104.301" y="32.032" fill="#636466" width="26.041" height="4.002"/>
	<rect x="107.373" y="22.16" fill="#636466" width="21.008" height="4.085"/>
	<rect x="107.96" y="13.229" fill="#636466" width="21.267" height="4.136"/>
	<rect x="115.814" y="7.759" fill="#636466" width="4.588" height="27.25"/>
	<path fill="#636466" d="M190.398,33.088l-0.984,3.336h-6.438c-10.816,0-12.447-5.15-13.861-11.26l3.125-1
		c1.258,8.014,4.387,9.035,11.088,8.924H190.398z"/>
	<path fill="#636466" d="M163.352,25.495c4.455-5.176,6.061-10.893,6.279-17.348h-3.758c-0.041,5.058-1.365,10.669-4.312,13.706
		L163.352,25.495z"/>
	<polygon fill="#636466" points="168.443,15.48 165.068,17.841 165.068,36.598 168.443,36.598 	"/>
	<path fill="#636466" d="M176.117,9.533c-0.217,5.949-2.279,9.477-5.512,12.821l-1.633-2.482c1.947-1.917,3.293-4.973,3.553-7.22
		h-4.082V9.533l5.125,0.004L176.117,9.533z"/>
	<path fill="#636466" d="M170.605,22.356l1.385-3.413h5.02v1.961c0,5.537-0.592,12.002-6.605,15.385l-1.289-3.334
		c3.115-2.092,4.551-5.354,4.363-10.6H170.605z"/>
	<path fill="#636466" d="M189.234,17.406h1.652v-3.131h-1.652V9.611h-4.699V7.573h-3.854v2.038h-3.109v3.083h3.109v1.582h-4.264v3
		h4.264v1.726h-2.854v3.13h2.854v1.305h-2.982v3h2.982v1.174h-3.494v3h3.494l-0.01,4.047h3.863V30.61h5.084v-3h-5.084v-1.174h4.312
		v-3h-4.312v-1.305h4.691L189.234,17.406z M186.217,19.001h-1.682v-1.727h1.682V19.001z M186.217,14.275h-1.682v-1.582h1.682V14.275
		z"/>
	<path fill="#636466" d="M141.992,14.295c5.391-0.298,12.158-1.286,17.203-3.324l-1.377-3.574
		c-5.248,2.134-11.453,2.935-16.576,3.188L141.992,14.295z"/>
	<polygon fill="#636466" points="136.146,8.147 140.688,12.362 138.17,15.332 133.361,11.117 	"/>
	<polygon fill="#636466" points="134.42,15.203 139.145,19.588 136.629,22.678 131.521,18.292 	"/>
	<path fill="#636466" d="M132.432,34.67l3.734,2.377c0,0,3.133-4.197,3.994-11.43l-3.838-0.996
		C136.295,26.688,135.107,31.592,132.432,34.67"/>
	<rect x="140.229" y="17.168" fill="#636466" width="20.018" height="3.542"/>
	<rect x="148.064" y="12.761" fill="#636466" width="4.215" height="12.5"/>
	<path fill="#636466" d="M159.037,24.551h-17.48v11.779h17.48V24.551z M145.818,27.815h9.004v5.314h-9.004V27.815z"/>
	<rect x="204.664" y="7.458" fill="#636466" width="4.332" height="3.662"/>
	<polygon fill="#636466" points="201.244,25.731 204.102,28.69 201.91,30.598 198.422,27.75 	"/>
	<path fill="#636466" d="M199.004,13.927h6.52v-1.28h-7.791v5.646h7.791v-1.297h-6.52V13.927z M209.281,18.293h3.625v-1.297h-3.625
		V18.293z M212.906,21.236h-3.625v1.278h3.625V21.236z M191.918,35.104c1.486-3.385,2.146-8.781,2.074-14.656V9.484l15.664,0.003
		h9.48v3.16h-9.855v1.28h7.506v4.366h2.721v2.942h-2.721v4.22h-7.256v8.355c0,1.711-1.312,2.928-3.111,2.928h-2.771l-0.953-3.732
		h2.062c0.469,0,0.766-0.258,0.766-0.855v-6.695h-6.66v-2.941h6.66v-1.278h-7.791c-0.039-0.583,0.342,10.401-2.385,15.19
		L191.918,35.104z"/>
	<path fill="#636466" d="M206.816,26.303c-2.666,2.818-6.553,4.727-9.904,5.945l1.488,3.221c3.43-1.645,6.047-3.02,9.24-5.797
		L206.816,26.303z"/>
	<path fill="#636466" d="M207.008,24.708c2.529,8.006,5.635,10.537,10.346,11.934l2.068-3.205
		c-5.799-1.23-8.895-4.836-10.631-11.238L207.008,24.708z"/>
	<path fill="#636466" d="M218.389,27.25c-1.176,1.59-3.207,3.297-4.623,3.807l-2.309-1.57c1.389-0.922,2.729-2.236,4.004-3.824
		L218.389,27.25z"/>
	<path fill="#636466" d="M108.418,7.825c-0.045,4.228-2.037,8.443-5.898,10.172l1.781,3.964c4.918-1.854,8.591-7.985,8.902-14.136
		H108.418z"/>
</g>
</svg>
